{
  "asset": {
    "version": "2.0",
    "generator": "Claude AI - Patent Analysis"
  },
  "scene": 0,
  "scenes": [
    {
      "name": "patents/radio/analysis/claude-opus-4.5/radio.gltf",
      "nodes": [
        0
      ]
    }
  ],
  "nodes": [
    {
      "name": "Root",
      "children": [
        1,
        2,
        3,
        4,
        5,
        6
      ]
    },
    {
      "name": "TransmitterBase",
      "mesh": 0,
      "translation": [
        -0.4,
        0.03,
        0
      ]
    },
    {
      "name": "TransmitterAntenna",
      "mesh": 1,
      "translation": [
        -0.4,
        0.4,
        0
      ]
    },
    {
      "name": "ReceiverBase",
      "mesh": 2,
      "translation": [
        0.4,
        0.03,
        0
      ]
    },
    {
      "name": "ReceiverAntenna",
      "mesh": 3,
      "translation": [
        0.4,
        0.4,
        0
      ]
    },
    {
      "name": "Coherer",
      "mesh": 4,
      "translation": [
        0.4,
        0.12,
        0.1
      ]
    },
    {
      "name": "InductionCoil",
      "mesh": 5,
      "translation": [
        -0.4,
        0.12,
        0.1
      ]
    }
  ],
  "meshes": [
    {
      "name": "TransmitterBase",
      "primitives": [
        {
          "attributes": {
            "POSITION": 0,
            "NORMAL": 1
          },
          "indices": 2,
          "material": 0
        }
      ]
    },
    {
      "name": "TransmitterAntenna",
      "primitives": [
        {
          "attributes": {
            "POSITION": 3,
            "NORMAL": 4
          },
          "indices": 5,
          "material": 1
        }
      ]
    },
    {
      "name": "ReceiverBase",
      "primitives": [
        {
          "attributes": {
            "POSITION": 6,
            "NORMAL": 7
          },
          "indices": 8,
          "material": 0
        }
      ]
    },
    {
      "name": "ReceiverAntenna",
      "primitives": [
        {
          "attributes": {
            "POSITION": 9,
            "NORMAL": 10
          },
          "indices": 11,
          "material": 1
        }
      ]
    },
    {
      "name": "Coherer",
      "primitives": [
        {
          "attributes": {
            "POSITION": 12,
            "NORMAL": 13
          },
          "indices": 14,
          "material": 2
        }
      ]
    },
    {
      "name": "InductionCoil",
      "primitives": [
        {
          "attributes": {
            "POSITION": 15,
            "NORMAL": 16
          },
          "indices": 17,
          "material": 1
        }
      ]
    }
  ],
  "accessors": [
    {
      "bufferView": 0,
      "byteOffset": 0,
      "componentType": 5126,
      "count": 24,
      "type": "VEC3",
      "min": [
        -0.15,
        -0.03,
        -0.1
      ],
      "max": [
        0.15,
        0.03,
        0.1
      ]
    },
    {
      "bufferView": 0,
      "byteOffset": 288,
      "componentType": 5126,
      "count": 24,
      "type": "VEC3"
    },
    {
      "bufferView": 1,
      "byteOffset": 0,
      "componentType": 5123,
      "count": 36,
      "type": "SCALAR"
    },
    {
      "bufferView": 0,
      "byteOffset": 576,
      "componentType": 5126,
      "count": 24,
      "type": "VEC3",
      "min": [
        -0.01,
        -0.35,
        -0.01
      ],
      "max": [
        0.01,
        0.35,
        0.01
      ]
    },
    {
      "bufferView": 0,
      "byteOffset": 864,
      "componentType": 5126,
      "count": 24,
      "type": "VEC3"
    },
    {
      "bufferView": 1,
      "byteOffset": 72,
      "componentType": 5123,
      "count": 36,
      "type": "SCALAR"
    },
    {
      "bufferView": 0,
      "byteOffset": 1152,
      "componentType": 5126,
      "count": 24,
      "type": "VEC3",
      "min": [
        -0.15,
        -0.03,
        -0.1
      ],
      "max": [
        0.15,
        0.03,
        0.1
      ]
    },
    {
      "bufferView": 0,
      "byteOffset": 1440,
      "componentType": 5126,
      "count": 24,
      "type": "VEC3"
    },
    {
      "bufferView": 1,
      "byteOffset": 144,
      "componentType": 5123,
      "count": 36,
      "type": "SCALAR"
    },
    {
      "bufferView": 0,
      "byteOffset": 1728,
      "componentType": 5126,
      "count": 24,
      "type": "VEC3",
      "min": [
        -0.01,
        -0.35,
        -0.01
      ],
      "max": [
        0.01,
        0.35,
        0.01
      ]
    },
    {
      "bufferView": 0,
      "byteOffset": 2016,
      "componentType": 5126,
      "count": 24,
      "type": "VEC3"
    },
    {
      "bufferView": 1,
      "byteOffset": 216,
      "componentType": 5123,
      "count": 36,
      "type": "SCALAR"
    },
    {
      "bufferView": 0,
      "byteOffset": 2304,
      "componentType": 5126,
      "count": 24,
      "type": "VEC3",
      "min": [
        -0.06,
        -0.015,
        -0.015
      ],
      "max": [
        0.06,
        0.015,
        0.015
      ]
    },
    {
      "bufferView": 0,
      "byteOffset": 2592,
      "componentType": 5126,
      "count": 24,
      "type": "VEC3"
    },
    {
      "bufferView": 1,
      "byteOffset": 288,
      "componentType": 5123,
      "count": 36,
      "type": "SCALAR"
    },
    {
      "bufferView": 0,
      "byteOffset": 2880,
      "componentType": 5126,
      "count": 24,
      "type": "VEC3",
      "min": [
        -0.04,
        -0.06,
        -0.04
      ],
      "max": [
        0.04,
        0.06,
        0.04
      ]
    },
    {
      "bufferView": 0,
      "byteOffset": 3168,
      "componentType": 5126,
      "count": 24,
      "type": "VEC3"
    },
    {
      "bufferView": 1,
      "byteOffset": 360,
      "componentType": 5123,
      "count": 36,
      "type": "SCALAR"
    }
  ],
  "bufferViews": [
    {
      "buffer": 0,
      "byteOffset": 0,
      "byteLength": 3456,
      "target": 34962
    },
    {
      "buffer": 0,
      "byteOffset": 3456,
      "byteLength": 432,
      "target": 34963
    }
  ],
  "buffers": [
    {
      "uri": "data:application/octet-stream;base64,",
      "byteLength": 3888
    }
  ],
  "materials": [
    {
      "name": "Wood",
      "pbrMetallicRoughness": {
        "baseColorFactor": [
          0.45,
          0.3,
          0.15,
          1
        ],
        "metallicFactor": 0,
        "roughnessFactor": 0.8
      }
    },
    {
      "name": "Copper",
      "pbrMetallicRoughness": {
        "baseColorFactor": [
          0.72,
          0.45,
          0.2,
          1
        ],
        "metallicFactor": 0.9,
        "roughnessFactor": 0.3
      }
    },
    {
      "name": "Glass",
      "pbrMetallicRoughness": {
        "baseColorFactor": [
          0.9,
          0.9,
          0.95,
          0.7
        ],
        "metallicFactor": 0,
        "roughnessFactor": 0.1
      },
      "alphaMode": "BLEND"
    }
  ]
}