{
  "asset": {
    "version": "2.0",
    "generator": "Claude AI - Patent Analysis"
  },
  "scene": 0,
  "scenes": [
    {
      "name": "patents/lighter/analysis/claude-opus-4.5/lighter.gltf",
      "nodes": [
        0
      ]
    }
  ],
  "nodes": [
    {
      "name": "Root",
      "children": [
        1,
        2,
        3,
        4,
        5
      ]
    },
    {
      "name": "OuterCase",
      "mesh": 0,
      "translation": [
        0,
        0,
        0
      ]
    },
    {
      "name": "InnerMember",
      "mesh": 1,
      "translation": [
        0,
        0.02,
        0
      ]
    },
    {
      "name": "Cover",
      "mesh": 2,
      "translation": [
        0,
        0.18,
        0.04
      ],
      "rotation": [
        -0.259,
        0,
        0,
        0.966
      ]
    },
    {
      "name": "WindScreen",
      "mesh": 3,
      "translation": [
        0,
        0.15,
        0
      ]
    },
    {
      "name": "FlintWheel",
      "mesh": 4,
      "translation": [
        0.025,
        0.13,
        0
      ]
    }
  ],
  "meshes": [
    {
      "name": "OuterCase",
      "primitives": [
        {
          "attributes": {
            "POSITION": 0,
            "NORMAL": 1
          },
          "indices": 2,
          "material": 0
        }
      ]
    },
    {
      "name": "InnerMember",
      "primitives": [
        {
          "attributes": {
            "POSITION": 3,
            "NORMAL": 4
          },
          "indices": 5,
          "material": 0
        }
      ]
    },
    {
      "name": "Cover",
      "primitives": [
        {
          "attributes": {
            "POSITION": 6,
            "NORMAL": 7
          },
          "indices": 8,
          "material": 0
        }
      ]
    },
    {
      "name": "WindScreen",
      "primitives": [
        {
          "attributes": {
            "POSITION": 9,
            "NORMAL": 10
          },
          "indices": 11,
          "material": 0
        }
      ]
    },
    {
      "name": "FlintWheel",
      "primitives": [
        {
          "attributes": {
            "POSITION": 12,
            "NORMAL": 13
          },
          "indices": 14,
          "material": 1
        }
      ]
    }
  ],
  "accessors": [
    {
      "bufferView": 0,
      "byteOffset": 0,
      "componentType": 5126,
      "count": 24,
      "type": "VEC3",
      "min": [
        -0.04,
        -0.12,
        -0.015
      ],
      "max": [
        0.04,
        0.12,
        0.015
      ]
    },
    {
      "bufferView": 0,
      "byteOffset": 288,
      "componentType": 5126,
      "count": 24,
      "type": "VEC3"
    },
    {
      "bufferView": 1,
      "byteOffset": 0,
      "componentType": 5123,
      "count": 36,
      "type": "SCALAR"
    },
    {
      "bufferView": 0,
      "byteOffset": 576,
      "componentType": 5126,
      "count": 24,
      "type": "VEC3",
      "min": [
        -0.035,
        -0.1,
        -0.0125
      ],
      "max": [
        0.035,
        0.1,
        0.0125
      ]
    },
    {
      "bufferView": 0,
      "byteOffset": 864,
      "componentType": 5126,
      "count": 24,
      "type": "VEC3"
    },
    {
      "bufferView": 1,
      "byteOffset": 72,
      "componentType": 5123,
      "count": 36,
      "type": "SCALAR"
    },
    {
      "bufferView": 0,
      "byteOffset": 1152,
      "componentType": 5126,
      "count": 24,
      "type": "VEC3",
      "min": [
        -0.04,
        -0.06,
        -0.015
      ],
      "max": [
        0.04,
        0.06,
        0.015
      ]
    },
    {
      "bufferView": 0,
      "byteOffset": 1440,
      "componentType": 5126,
      "count": 24,
      "type": "VEC3"
    },
    {
      "bufferView": 1,
      "byteOffset": 144,
      "componentType": 5123,
      "count": 36,
      "type": "SCALAR"
    },
    {
      "bufferView": 0,
      "byteOffset": 1728,
      "componentType": 5126,
      "count": 24,
      "type": "VEC3",
      "min": [
        -0.025,
        -0.03,
        -0.025
      ],
      "max": [
        0.025,
        0.03,
        0.025
      ]
    },
    {
      "bufferView": 0,
      "byteOffset": 2016,
      "componentType": 5126,
      "count": 24,
      "type": "VEC3"
    },
    {
      "bufferView": 1,
      "byteOffset": 216,
      "componentType": 5123,
      "count": 36,
      "type": "SCALAR"
    },
    {
      "bufferView": 0,
      "byteOffset": 2304,
      "componentType": 5126,
      "count": 24,
      "type": "VEC3",
      "min": [
        -0.015,
        -0.008,
        -0.008
      ],
      "max": [
        0.015,
        0.008,
        0.008
      ]
    },
    {
      "bufferView": 0,
      "byteOffset": 2592,
      "componentType": 5126,
      "count": 24,
      "type": "VEC3"
    },
    {
      "bufferView": 1,
      "byteOffset": 288,
      "componentType": 5123,
      "count": 36,
      "type": "SCALAR"
    }
  ],
  "bufferViews": [
    {
      "buffer": 0,
      "byteOffset": 0,
      "byteLength": 2880,
      "target": 34962
    },
    {
      "buffer": 0,
      "byteOffset": 2880,
      "byteLength": 360,
      "target": 34963
    }
  ],
  "buffers": [
    {
      "uri": "data:application/octet-stream;base64,",
      "byteLength": 3240
    }
  ],
  "materials": [
    {
      "name": "Chrome",
      "pbrMetallicRoughness": {
        "baseColorFactor": [
          0.8,
          0.8,
          0.82,
          1
        ],
        "metallicFactor": 1,
        "roughnessFactor": 0.2
      }
    },
    {
      "name": "Steel",
      "pbrMetallicRoughness": {
        "baseColorFactor": [
          0.5,
          0.5,
          0.52,
          1
        ],
        "metallicFactor": 0.9,
        "roughnessFactor": 0.5
      }
    }
  ]
}