{
  "asset": {
    "version": "2.0",
    "generator": "Claude AI - Patent Analysis"
  },
  "scene": 0,
  "scenes": [
    {
      "name": "patents/phonograph/analysis/claude-opus-4.5/phonograph.gltf",
      "nodes": [
        0
      ]
    }
  ],
  "nodes": [
    {
      "name": "Root",
      "children": [
        1,
        2,
        3,
        4,
        5,
        6,
        7
      ]
    },
    {
      "name": "Base",
      "mesh": 0,
      "translation": [
        0,
        -0.025,
        0
      ]
    },
    {
      "name": "LeftSupport",
      "mesh": 1,
      "translation": [
        -0.35,
        0.15,
        0
      ]
    },
    {
      "name": "RightSupport",
      "mesh": 2,
      "translation": [
        0.35,
        0.15,
        0
      ]
    },
    {
      "name": "Shaft",
      "mesh": 3,
      "translation": [
        0,
        0.25,
        0
      ]
    },
    {
      "name": "Cylinder",
      "mesh": 4,
      "translation": [
        0,
        0.25,
        0
      ]
    },
    {
      "name": "SpeakingTube",
      "mesh": 5,
      "translation": [
        -0.5,
        0.25,
        0
      ]
    },
    {
      "name": "Flywheel",
      "mesh": 6,
      "translation": [
        0.45,
        0.25,
        0
      ]
    }
  ],
  "meshes": [
    {
      "name": "Base",
      "primitives": [
        {
          "attributes": {
            "POSITION": 0,
            "NORMAL": 1
          },
          "indices": 2,
          "material": 0
        }
      ]
    },
    {
      "name": "LeftSupport",
      "primitives": [
        {
          "attributes": {
            "POSITION": 3,
            "NORMAL": 4
          },
          "indices": 5,
          "material": 0
        }
      ]
    },
    {
      "name": "RightSupport",
      "primitives": [
        {
          "attributes": {
            "POSITION": 6,
            "NORMAL": 7
          },
          "indices": 8,
          "material": 0
        }
      ]
    },
    {
      "name": "Shaft",
      "primitives": [
        {
          "attributes": {
            "POSITION": 9,
            "NORMAL": 10
          },
          "indices": 11,
          "material": 2
        }
      ]
    },
    {
      "name": "Cylinder",
      "primitives": [
        {
          "attributes": {
            "POSITION": 12,
            "NORMAL": 13
          },
          "indices": 14,
          "material": 1
        }
      ]
    },
    {
      "name": "SpeakingTube",
      "primitives": [
        {
          "attributes": {
            "POSITION": 15,
            "NORMAL": 16
          },
          "indices": 17,
          "material": 1
        }
      ]
    },
    {
      "name": "Flywheel",
      "primitives": [
        {
          "attributes": {
            "POSITION": 18,
            "NORMAL": 19
          },
          "indices": 20,
          "material": 2
        }
      ]
    }
  ],
  "accessors": [
    {
      "bufferView": 0,
      "byteOffset": 0,
      "componentType": 5126,
      "count": 24,
      "type": "VEC3",
      "min": [
        -0.5,
        -0.025,
        -0.2
      ],
      "max": [
        0.5,
        0.025,
        0.2
      ]
    },
    {
      "bufferView": 0,
      "byteOffset": 288,
      "componentType": 5126,
      "count": 24,
      "type": "VEC3"
    },
    {
      "bufferView": 1,
      "byteOffset": 0,
      "componentType": 5123,
      "count": 36,
      "type": "SCALAR"
    },
    {
      "bufferView": 0,
      "byteOffset": 576,
      "componentType": 5126,
      "count": 24,
      "type": "VEC3",
      "min": [
        -0.03,
        -0.15,
        -0.03
      ],
      "max": [
        0.03,
        0.15,
        0.03
      ]
    },
    {
      "bufferView": 0,
      "byteOffset": 864,
      "componentType": 5126,
      "count": 24,
      "type": "VEC3"
    },
    {
      "bufferView": 1,
      "byteOffset": 72,
      "componentType": 5123,
      "count": 36,
      "type": "SCALAR"
    },
    {
      "bufferView": 0,
      "byteOffset": 1152,
      "componentType": 5126,
      "count": 24,
      "type": "VEC3",
      "min": [
        -0.03,
        -0.15,
        -0.03
      ],
      "max": [
        0.03,
        0.15,
        0.03
      ]
    },
    {
      "bufferView": 0,
      "byteOffset": 1440,
      "componentType": 5126,
      "count": 24,
      "type": "VEC3"
    },
    {
      "bufferView": 1,
      "byteOffset": 144,
      "componentType": 5123,
      "count": 36,
      "type": "SCALAR"
    },
    {
      "bufferView": 0,
      "byteOffset": 1728,
      "componentType": 5126,
      "count": 24,
      "type": "VEC3",
      "min": [
        -0.4,
        -0.008,
        -0.008
      ],
      "max": [
        0.4,
        0.008,
        0.008
      ]
    },
    {
      "bufferView": 0,
      "byteOffset": 2016,
      "componentType": 5126,
      "count": 24,
      "type": "VEC3"
    },
    {
      "bufferView": 1,
      "byteOffset": 216,
      "componentType": 5123,
      "count": 36,
      "type": "SCALAR"
    },
    {
      "bufferView": 0,
      "byteOffset": 2304,
      "componentType": 5126,
      "count": 24,
      "type": "VEC3",
      "min": [
        -0.15,
        -0.06,
        -0.06
      ],
      "max": [
        0.15,
        0.06,
        0.06
      ]
    },
    {
      "bufferView": 0,
      "byteOffset": 2592,
      "componentType": 5126,
      "count": 24,
      "type": "VEC3"
    },
    {
      "bufferView": 1,
      "byteOffset": 288,
      "componentType": 5123,
      "count": 36,
      "type": "SCALAR"
    },
    {
      "bufferView": 0,
      "byteOffset": 2880,
      "componentType": 5126,
      "count": 24,
      "type": "VEC3",
      "min": [
        -0.075,
        -0.04,
        -0.04
      ],
      "max": [
        0.075,
        0.04,
        0.04
      ]
    },
    {
      "bufferView": 0,
      "byteOffset": 3168,
      "componentType": 5126,
      "count": 24,
      "type": "VEC3"
    },
    {
      "bufferView": 1,
      "byteOffset": 360,
      "componentType": 5123,
      "count": 36,
      "type": "SCALAR"
    },
    {
      "bufferView": 0,
      "byteOffset": 3456,
      "componentType": 5126,
      "count": 24,
      "type": "VEC3",
      "min": [
        -0.01,
        -0.08,
        -0.08
      ],
      "max": [
        0.01,
        0.08,
        0.08
      ]
    },
    {
      "bufferView": 0,
      "byteOffset": 3744,
      "componentType": 5126,
      "count": 24,
      "type": "VEC3"
    },
    {
      "bufferView": 1,
      "byteOffset": 432,
      "componentType": 5123,
      "count": 36,
      "type": "SCALAR"
    }
  ],
  "bufferViews": [
    {
      "buffer": 0,
      "byteOffset": 0,
      "byteLength": 4032,
      "target": 34962
    },
    {
      "buffer": 0,
      "byteOffset": 4032,
      "byteLength": 504,
      "target": 34963
    }
  ],
  "buffers": [
    {
      "uri": "data:application/octet-stream;base64,",
      "byteLength": 4536
    }
  ],
  "materials": [
    {
      "name": "Wood",
      "pbrMetallicRoughness": {
        "baseColorFactor": [
          0.55,
          0.35,
          0.2,
          1
        ],
        "metallicFactor": 0,
        "roughnessFactor": 0.8
      }
    },
    {
      "name": "Brass",
      "pbrMetallicRoughness": {
        "baseColorFactor": [
          0.83,
          0.69,
          0.22,
          1
        ],
        "metallicFactor": 0.9,
        "roughnessFactor": 0.3
      }
    },
    {
      "name": "Steel",
      "pbrMetallicRoughness": {
        "baseColorFactor": [
          0.6,
          0.6,
          0.6,
          1
        ],
        "metallicFactor": 0.9,
        "roughnessFactor": 0.4
      }
    }
  ]
}